<svg width="16" height="17" viewBox="0 0 16 17" fill="none" xmlns="http://www.w3.org/2000/svg">
<path d="M11.3333 2.49999C11.5083 2.3249 11.7162 2.186 11.945 2.09124C12.1738 1.99648 12.419 1.94771 12.6666 1.94771C12.9142 1.94771 13.1594 1.99648 13.3882 2.09124C13.617 2.186 13.8248 2.3249 13.9999 2.49999C14.175 2.67509 14.3139 2.88296 14.4087 3.11173C14.5034 3.3405 14.5522 3.5857 14.5522 3.83333C14.5522 4.08095 14.5034 4.32615 14.4087 4.55492C14.3139 4.78369 14.175 4.99156 13.9999 5.16666L4.99992 14.1667L1.33325 15.1667L2.33325 11.5L11.3333 2.49999Z" stroke="#999999" stroke-width="1.5" stroke-linecap="round" stroke-linejoin="round"/>
</svg>
