<svg width="24" height="24" viewBox="0 0 24 24" fill="none" xmlns="http://www.w3.org/2000/svg">
<path d="M21.12 10.08C21.12 16.8 12.48 22.56 12.48 22.56C12.48 22.56 3.83997 16.8 3.83997 10.08C3.83997 7.78853 4.75025 5.59091 6.37056 3.9706C7.99088 2.35029 10.1885 1.44 12.48 1.44C14.7714 1.44 16.9691 2.35029 18.5894 3.9706C20.2097 5.59091 21.12 7.78853 21.12 10.08Z" stroke="#5736B5" stroke-width="1.8" stroke-linecap="round" stroke-linejoin="round"/>
<path d="M12.48 12.96C14.0706 12.96 15.36 11.6706 15.36 10.08C15.36 8.48943 14.0706 7.20001 12.48 7.20001C10.8894 7.20001 9.59998 8.48943 9.59998 10.08C9.59998 11.6706 10.8894 12.96 12.48 12.96Z" stroke="#5736B5" stroke-width="1.8" stroke-linecap="round" stroke-linejoin="round"/>
</svg>
