<svg width="144" height="144" viewBox="0 0 144 144" fill="none" xmlns="http://www.w3.org/2000/svg">
<circle cx="72" cy="72" r="71.5862" fill="url(#paint0_linear_764_1549)" fill-opacity="0.4" stroke="url(#paint1_linear_764_1549)" stroke-width="0.827586"/>
<circle cx="64.7586" cy="72.4137" r="58.3448" fill="#8C85DB" fill-opacity="0.9"/>
<g clip-path="url(#clip0_764_1549)">
<path d="M31.2415 65.5453C31.2415 52.6558 41.6905 42.2068 54.58 42.2068H96.1518C96.8678 42.2068 97.4483 42.7873 97.4483 43.5034V85.0751C97.4483 97.9647 86.9993 108.414 74.1098 108.414H54.58C41.6905 108.414 31.2415 97.9647 31.2415 85.0751V65.5453Z" fill="url(#paint2_linear_764_1549)"/>
<path fill-rule="evenodd" clip-rule="evenodd" d="M59.1969 90.7375C54.6618 90.5931 50.3465 88.9434 47.1263 86.1076C43.7525 83.1365 41.8572 79.1069 41.8572 74.9052C41.8572 70.7034 43.7525 66.6738 47.1263 63.7027C50.3087 60.9002 54.5605 59.2561 59.037 59.0786V59.0625H59.8473H65.5551H65.5604C67.2387 59.0625 68.5993 60.423 68.5993 62.1014C68.5993 63.7661 67.2606 65.1183 65.601 65.14L65.601 65.1402H65.5604H59.8473V65.1429C56.9072 65.1429 54.0876 66.1714 52.0086 68.0022C49.9297 69.833 48.7618 72.316 48.7618 74.9052C48.7618 77.4943 49.9297 79.9773 52.0086 81.8081C54.0876 83.6389 56.9072 84.6674 59.8473 84.6674V84.67H64.1026C67.3615 84.67 70.373 82.9316 72.0028 80.1095L83.8078 59.6687C86.1965 55.5326 90.6102 52.9847 95.3866 52.9847H98.6612V59.0593H97.1768C93.9177 59.0593 90.9062 60.7979 89.2764 63.6201L77.193 84.5451C74.9765 88.3834 70.8809 90.7478 66.4485 90.7478H59.8473V90.7478C59.8335 90.7478 59.8196 90.7478 59.8058 90.7478H59.1969V90.7375Z" fill="white"/>
<path d="M51.7897 98.0464C53.8184 99.2177 56.4119 98.1807 57.651 96.0345C58.8901 93.8883 58.4915 91.1237 56.4628 89.9524C54.4341 88.7812 51.8406 89.8182 50.6015 91.9644C49.3624 94.1106 49.761 96.8752 51.7897 98.0464Z" fill="white" stroke="url(#paint3_linear_764_1549)" stroke-width="1.29659"/>
<path d="M66.3356 98.0464C68.3643 99.2177 70.9578 98.1807 72.1969 96.0345C73.436 93.8883 73.0374 91.1237 71.0087 89.9524C68.98 88.7812 66.3865 89.8182 65.1474 91.9644C63.9082 94.1106 64.3069 96.8752 66.3356 98.0464Z" fill="white" stroke="url(#paint4_linear_764_1549)" stroke-width="1.29659"/>
</g>
<defs>
<linearGradient id="paint0_linear_764_1549" x1="115.034" y1="139.034" x2="21.1034" y2="21.931" gradientUnits="userSpaceOnUse">
<stop stop-color="#8C85DB"/>
<stop offset="1" stop-color="#8C85DB" stop-opacity="0"/>
</linearGradient>
<linearGradient id="paint1_linear_764_1549" x1="15.7241" y1="-1.2013e-08" x2="116.276" y2="134.897" gradientUnits="userSpaceOnUse">
<stop offset="0.0159987" stop-color="#6851BE"/>
<stop offset="1" stop-color="white" stop-opacity="0"/>
</linearGradient>
<linearGradient id="paint2_linear_764_1549" x1="37.3597" y1="39.9378" x2="100.676" y2="89.4776" gradientUnits="userSpaceOnUse">
<stop stop-color="#8462E2"/>
<stop offset="0.56755" stop-color="#5736B5"/>
<stop offset="0.969482" stop-color="#42239A"/>
</linearGradient>
<linearGradient id="paint3_linear_764_1549" x1="54.9041" y1="90.8694" x2="56.6869" y2="99.1757" gradientUnits="userSpaceOnUse">
<stop stop-color="#5635B3"/>
<stop offset="1" stop-color="#7756D5"/>
</linearGradient>
<linearGradient id="paint4_linear_764_1549" x1="74.9605" y1="104.038" x2="67.6267" y2="88.803" gradientUnits="userSpaceOnUse">
<stop stop-color="#7655D4"/>
<stop offset="0.879376" stop-color="#5333AF"/>
</linearGradient>
<clipPath id="clip0_764_1549">
<path d="M31.2415 65.5453C31.2415 52.6558 41.6905 42.2068 54.58 42.2068H96.1518C96.8678 42.2068 97.4483 42.7873 97.4483 43.5034V85.0751C97.4483 97.9647 86.9993 108.414 74.1098 108.414H54.58C41.6905 108.414 31.2415 97.9647 31.2415 85.0751V65.5453Z" fill="white"/>
</clipPath>
</defs>
</svg>
