<svg width="24" height="24" viewBox="0 0 24 24" fill="none" xmlns="http://www.w3.org/2000/svg">
<mask id="mask0_60_193" style="mask-type:alpha" maskUnits="userSpaceOnUse" x="0" y="0" width="24" height="24">
<rect width="24" height="24" fill="#D9D9D9"/>
</mask>
<g mask="url(#mask0_60_193)">
<path d="M4.76552 5.47297C6.55229 4.37035 8.9609 3.81429 12 3.81429C15.0391 3.81429 17.4481 4.37035 19.2355 5.47298C21.0152 6.57196 21.9 8.12542 21.9 10.1429V11.1143H2.1V10.1429C2.1 8.12543 2.9851 6.57196 4.76552 5.47297ZM4.76552 5.47297L4.713 5.38787M4.76552 5.47297L4.713 5.38787M4.713 5.38787C6.521 4.27215 8.95 3.71429 12 3.71429C15.05 3.71429 17.4793 4.27215 19.288 5.38787M4.713 5.38787C2.90433 6.50429 2 8.08929 2 10.1429L19.288 5.38787M19.288 5.38787C21.096 6.50429 22 8.08929 22 10.1429V11.1143L19.288 5.38787ZM4.05622 9.03673L4.00636 9.17144H4.15H19.85H19.9936L19.9438 9.03673C19.5475 7.96595 18.6328 7.15475 17.225 6.59459L17.225 6.59459C15.8176 6.03493 14.0748 5.75715 12 5.75715C9.92516 5.75715 8.18235 6.03493 6.77505 6.59459L6.77503 6.59459C5.36715 7.15475 4.45253 7.96595 4.05622 9.03673ZM3.9 20.8572V20.9572H4H20H20.1V20.8572V19.7857V19.6857H20H4H3.9V19.7857V20.8572ZM21.9 15.935C21.0287 15.9225 20.4754 15.7445 20.1998 15.4337C19.8595 15.0498 19.3707 14.8643 18.75 14.8643C18.1288 14.8643 17.6188 15.0499 17.2302 15.4284C16.8926 15.7572 16.2767 15.9357 15.35 15.9357C14.4226 15.9357 13.8168 15.7569 13.4964 15.43C13.1239 15.0499 12.6211 14.8643 12 14.8643C11.3789 14.8643 10.8761 15.0499 10.5036 15.43C10.1832 15.7569 9.57743 15.9357 8.65 15.9357C7.72175 15.9357 7.12625 15.7566 6.82311 15.4318C6.46668 15.0499 5.97092 14.8643 5.35 14.8643C4.7289 14.8643 4.22607 15.0499 3.85358 15.43C3.54488 15.745 2.97115 15.9225 2.1 15.935V13.9912C2.67526 13.9722 3.14413 13.7866 3.49642 13.4271C3.81678 13.1002 4.42257 12.9214 5.35 12.9214C6.27825 12.9214 6.87375 13.1006 7.17689 13.4254C7.53332 13.8073 8.02908 13.9929 8.65 13.9929C9.2711 13.9929 9.77393 13.8072 10.1464 13.4271C10.4668 13.1002 11.0726 12.9214 12 12.9214C12.9274 12.9214 13.5332 13.1002 13.8536 13.4271C14.2261 13.8072 14.7289 13.9929 15.35 13.9929C15.9709 13.9929 16.4667 13.8073 16.8231 13.4254C17.1262 13.1006 17.7218 12.9214 18.65 12.9214C19.576 12.9214 20.2019 13.0997 20.5568 13.4303C20.9348 13.7825 21.384 13.9696 21.9 13.9908V15.935ZM4 22.9C3.47903 22.9 3.03444 22.7028 2.66111 22.3029C2.28687 21.9019 2.1 21.4218 2.1 20.8572V17.7429H21.9V20.8572C21.9 21.4219 21.7134 21.902 21.3398 22.3029C20.9658 22.7029 20.5209 22.9 20 22.9H4Z" fill="#999999" stroke="white" stroke-width="0.2"/>
</g>
</svg>
