<svg width="24" height="24" viewBox="0 0 24 24" fill="none" xmlns="http://www.w3.org/2000/svg">
<mask id="mask0_3_384" style="mask-type:alpha" maskUnits="userSpaceOnUse" x="0" y="0" width="24" height="24">
<rect width="24" height="24" fill="#D9D9D9"/>
</mask>
<g mask="url(#mask0_3_384)">
<path d="M2 11.2143V10.1429C2 8.08929 2.90433 6.50429 4.713 5.38787C6.521 4.27215 8.95 3.71429 12 3.71429C15.05 3.71429 17.4793 4.27215 19.288 5.38787C21.096 6.50429 22 8.08929 22 10.1429V11.2143H2ZM4.15 9.07144H19.85C19.4667 8.03572 18.5793 7.24108 17.188 6.68751C15.796 6.13394 14.0667 5.85715 12 5.85715C9.93333 5.85715 8.204 6.13394 6.812 6.68751C5.42067 7.24108 4.53333 8.03572 4.15 9.07144ZM2 16.0357V13.8929C2.6 13.8929 3.075 13.7143 3.425 13.3572C3.775 13 4.41667 12.8214 5.35 12.8214C6.28333 12.8214 6.91667 13 7.25 13.3572C7.58333 13.7143 8.05 13.8929 8.65 13.8929C9.25 13.8929 9.725 13.7143 10.075 13.3572C10.425 13 11.0667 12.8214 12 12.8214C12.9333 12.8214 13.575 13 13.925 13.3572C14.275 13.7143 14.75 13.8929 15.35 13.8929C15.95 13.8929 16.4167 13.7143 16.75 13.3572C17.0833 13 17.7167 12.8214 18.65 12.8214C19.5833 12.8214 20.2417 13 20.625 13.3572C21.0083 13.7143 21.4667 13.8929 22 13.8929V16.0357C21.0667 16.0357 20.4417 15.8572 20.125 15.5C19.8083 15.1429 19.35 14.9643 18.75 14.9643C18.15 14.9643 17.6667 15.1429 17.3 15.5C16.9333 15.8572 16.2833 16.0357 15.35 16.0357C14.4167 16.0357 13.775 15.8572 13.425 15.5C13.075 15.1429 12.6 14.9643 12 14.9643C11.4 14.9643 10.925 15.1429 10.575 15.5C10.225 15.8572 9.58333 16.0357 8.65 16.0357C7.71667 16.0357 7.08333 15.8572 6.75 15.5C6.41667 15.1429 5.95 14.9643 5.35 14.9643C4.75 14.9643 4.275 15.1429 3.925 15.5C3.575 15.8572 2.93333 16.0357 2 16.0357ZM4 23C3.45 23 2.97933 22.7904 2.588 22.3711C2.196 21.9511 2 21.4464 2 20.8572V17.6429H22V20.8572C22 21.4464 21.8043 21.9511 21.413 22.3711C21.021 22.7904 20.55 23 20 23H4ZM4 20.8572H20V19.7857H4V20.8572Z" fill="#5736B5"/>
</g>
</svg>
