<svg width="24" height="24" viewBox="0 0 24 24" fill="none" xmlns="http://www.w3.org/2000/svg">
<path d="M14.4481 5.76C15.3857 5.94294 16.2475 6.40153 16.923 7.07706C17.5985 7.75259 18.0571 8.61433 18.2401 9.552M14.4481 1.92C16.3962 2.13642 18.2128 3.00881 19.5996 4.39393C20.9865 5.77905 21.8612 7.59457 22.0801 9.5424M21.1201 17.2032V20.0832C21.1211 20.3506 21.0664 20.6152 20.9593 20.8602C20.8522 21.1051 20.6951 21.325 20.4981 21.5058C20.301 21.6865 20.0684 21.8241 19.8152 21.9098C19.5619 21.9955 19.2935 22.0273 19.0273 22.0032C16.0732 21.6822 13.2356 20.6728 10.7425 19.056C8.42293 17.5821 6.45638 15.6155 4.98246 13.296C3.36004 10.7916 2.35037 7.94015 2.03526 4.9728C2.01127 4.70733 2.04282 4.43977 2.1279 4.18716C2.21298 3.93455 2.34973 3.70242 2.52943 3.50555C2.70914 3.30869 2.92787 3.1514 3.1717 3.0437C3.41552 2.936 3.6791 2.88025 3.94566 2.88H6.82566C7.29155 2.87541 7.74322 3.04039 8.09647 3.34419C8.44972 3.64799 8.68045 4.06987 8.74566 4.5312C8.86722 5.45286 9.09265 6.35782 9.41766 7.2288C9.54682 7.57241 9.57477 7.94584 9.49821 8.30484C9.42164 8.66385 9.24377 8.99339 8.98566 9.2544L7.76646 10.4736C9.13307 12.877 11.1231 14.867 13.5265 16.2336L14.7457 15.0144C15.0067 14.7563 15.3362 14.5784 15.6952 14.5018C16.0542 14.4253 16.4277 14.4532 16.7713 14.5824C17.6422 14.9074 18.5472 15.1328 19.4689 15.2544C19.9352 15.3202 20.3611 15.5551 20.6655 15.9144C20.97 16.2737 21.1317 16.7324 21.1201 17.2032Z" stroke="#5736B5" stroke-width="1.8" stroke-linecap="round" stroke-linejoin="round"/>
</svg>
