<svg width="16" height="16" viewBox="0 0 16 16" fill="none" xmlns="http://www.w3.org/2000/svg">
<g clip-path="url(#clip0_591_1869)">
<path d="M4.66671 7.33333L7.33337 1.33333C7.86381 1.33333 8.37252 1.54404 8.74759 1.91911C9.12266 2.29419 9.33337 2.8029 9.33337 3.33333V5.99999H13.1067C13.3 5.99781 13.4914 6.03766 13.6678 6.11681C13.8441 6.19595 14.0011 6.31248 14.1279 6.45834C14.2548 6.60419 14.3484 6.77588 14.4023 6.9615C14.4562 7.14712 14.469 7.34223 14.44 7.53333L13.52 13.5333C13.4718 13.8513 13.3103 14.1411 13.0653 14.3493C12.8203 14.5576 12.5083 14.6703 12.1867 14.6667H4.66671M4.66671 7.33333V14.6667M4.66671 7.33333H2.66671C2.31309 7.33333 1.97395 7.4738 1.7239 7.72385C1.47385 7.9739 1.33337 8.31304 1.33337 8.66666V13.3333C1.33337 13.6869 1.47385 14.0261 1.7239 14.2761C1.97395 14.5262 2.31309 14.6667 2.66671 14.6667H4.66671" stroke="#999999" stroke-width="1.5" stroke-linecap="round" stroke-linejoin="round"/>
</g>
<defs>
<clipPath id="clip0_591_1869">
<rect width="16" height="16" fill="white"/>
</clipPath>
</defs>
</svg>
